<?xml version="1.0" standalone="no"?>
<!DOCTYPE svg PUBLIC "-//W3C//DTD SVG 20010904//EN"
 "http://www.w3.org/TR/2001/REC-SVG-20010904/DTD/svg10.dtd">
<svg version="1.0" xmlns="http://www.w3.org/2000/svg"
 width="854.000000pt" height="854.000000pt" viewBox="0 0 854.000000 854.000000"
 preserveAspectRatio="xMidYMid meet">
<metadata>
Created by potrace 1.11, written by Peter Selinger 2001-2013
</metadata>
<g transform="translate(0.000000,854.000000) scale(0.100000,-0.100000)"
fill="#000000" stroke="none">
<path d="M4068 8044 c-7 -6 -12 -7 -80 -18 -32 -6 -45 -12 -41 -20 5 -8 3 -8
-8 1 -11 9 -20 8 -39 -2 -14 -8 -34 -14 -45 -15 -12 0 -25 -4 -30 -9 -13 -12
-75 -16 -99 -6 -13 6 -21 4 -24 -3 -2 -7 -19 -12 -38 -12 -19 0 -34 -4 -34
-10 0 -5 -5 -10 -11 -10 -12 0 -60 -35 -56 -41 1 -2 -3 2 -10 9 -15 17 -95 6
-140 -19 -18 -10 -33 -16 -33 -12 0 3 -9 -2 -19 -11 -14 -13 -39 -18 -84 -20
-35 -1 -71 -7 -79 -14 -8 -6 -19 -8 -23 -4 -5 4 -5 1 -1 -6 4 -6 0 -19 -8 -28
-9 -8 -16 -12 -16 -8 0 4 -6 0 -13 -11 -8 -10 -19 -15 -25 -11 -7 4 -12 3 -12
-2 0 -13 -98 -54 -111 -46 -7 4 -9 3 -6 -3 7 -12 -25 -41 -40 -36 -12 4 -12
-14 0 -34 5 -7 1 -9 -13 -6 -11 3 -17 9 -14 14 3 5 0 9 -5 9 -15 0 -14 -27 2
-33 6 -3 -3 -6 -20 -6 -18 -1 -33 -6 -33 -12 0 -10 -58 -35 -72 -31 -5 1 -7
-2 -5 -6 3 -12 -56 -72 -71 -72 -7 0 -10 -4 -7 -10 3 -5 1 -10 -5 -10 -6 0 -8
-5 -4 -12 5 -8 2 -9 -9 -5 -10 3 -17 2 -17 -4 0 -6 -4 -8 -9 -5 -9 6 -26 -22
-22 -37 1 -5 -8 -11 -19 -14 -11 -3 -20 -10 -20 -15 0 -5 -4 -6 -10 -3 -5 3
-10 1 -10 -4 0 -6 0 -13 0 -16 0 -10 -35 -42 -42 -38 -4 2 -5 -3 -2 -11 8 -20
-65 -87 -109 -102 -18 -6 -32 -15 -32 -20 0 -5 -4 -15 -8 -21 -5 -7 -4 -13 2
-13 14 0 8 -25 -12 -45 -10 -10 -16 -24 -13 -31 3 -8 2 -13 -2 -13 -4 1 -15 1
-24 0 -15 -1 -14 -4 5 -24 12 -13 27 -21 32 -18 6 2 1 -6 -10 -19 -11 -13 -15
-20 -8 -17 6 4 15 3 18 -3 4 -6 3 -10 -2 -9 -39 7 -55 -23 -23 -44 17 -10 17
-12 -1 -41 -10 -17 -19 -38 -18 -46 0 -10 3 -8 9 5 7 16 9 17 9 3 1 -9 -3 -19
-9 -23 -5 -3 -17 -31 -27 -63 -9 -31 -28 -72 -41 -89 -13 -18 -22 -39 -19 -47
3 -8 2 -16 -3 -18 -5 -2 -11 -24 -12 -50 -2 -27 -5 -48 -8 -48 -10 0 -10 -67
1 -114 8 -33 14 -44 20 -35 6 10 9 6 9 -12 0 -14 3 -29 8 -33 4 -4 8 -24 9
-44 4 -68 10 -94 23 -102 8 -5 15 -19 17 -31 2 -13 7 -26 11 -29 4 -3 7 -25 6
-50 0 -61 6 -86 17 -68 6 9 9 5 9 -14 0 -15 5 -30 10 -33 6 -3 10 -17 10 -31
0 -13 4 -32 9 -42 25 -45 91 -213 91 -229 0 -6 13 -25 29 -42 16 -17 27 -31
25 -31 -3 0 6 -12 20 -27 14 -15 28 -41 32 -58 4 -16 26 -70 50 -120 24 -49
44 -102 44 -118 0 -17 4 -26 11 -22 6 4 13 -3 16 -15 3 -11 11 -19 18 -16 7 2
18 -7 26 -20 11 -21 11 -27 0 -34 -8 -4 -13 -20 -13 -34 0 -18 -9 -33 -25 -43
-18 -12 -23 -23 -20 -39 2 -13 0 -21 -5 -18 -5 4 -8 -4 -7 -17 2 -13 1 -29 -3
-34 -3 -6 -3 -29 2 -53 4 -23 4 -42 0 -42 -15 0 32 -201 62 -265 l18 -40 -6
40 c-3 22 -8 53 -11 69 -5 22 -3 27 7 21 10 -6 12 -2 6 16 -39 139 -43 170
-27 224 9 34 68 105 87 105 23 0 74 -69 74 -100 0 -27 -4 -31 -46 -42 -58 -16
-85 -49 -61 -76 9 -9 16 -21 17 -27 2 -5 6 -20 11 -33 5 -13 9 -33 9 -45 0
-15 8 -8 31 28 30 47 56 74 71 75 19 0 39 -82 43 -172 4 -70 10 -106 24 -130
11 -20 17 -48 15 -68 -3 -38 21 -173 42 -232 7 -20 11 -45 9 -55 -2 -10 -4
-24 -4 -31 -1 -19 -88 -53 -119 -47 -27 5 -27 5 -3 -5 17 -8 38 -7 77 3 46 12
54 12 59 -1 3 -8 3 -17 0 -20 -3 -3 -5 0 -5 6 0 7 -6 12 -12 12 -7 -1 -1 -11
15 -23 15 -13 27 -28 27 -35 0 -7 4 -10 10 -7 6 4 8 -7 6 -27 -2 -18 -1 -35 3
-38 4 -3 22 -36 40 -73 21 -46 35 -66 44 -61 6 4 9 4 5 0 -12 -14 31 -135 59
-164 8 -8 20 -27 28 -43 9 -16 20 -29 25 -29 20 0 9 -20 -41 -77 -129 -146
-192 -266 -214 -410 -6 -41 -9 -43 -65 -64 -33 -12 -66 -29 -75 -39 -9 -10
-23 -16 -30 -13 -8 2 -46 -17 -86 -44 -40 -26 -100 -66 -133 -89 -34 -22 -86
-49 -116 -59 -30 -9 -71 -25 -90 -35 -19 -10 -71 -32 -115 -50 -44 -18 -100
-42 -124 -53 -24 -10 -69 -25 -100 -33 -31 -8 -83 -28 -116 -43 -114 -55 -250
-113 -317 -137 -68 -23 -128 -52 -139 -67 -3 -5 -9 -9 -12 -8 -6 0 -60 -20
-102 -39 -11 -5 -49 -21 -85 -36 -203 -88 -341 -180 -332 -222 2 -8 -1 -11 -7
-7 -7 4 -11 -10 -11 -42 0 -26 -6 -59 -14 -73 -7 -14 -42 -77 -77 -140 -35
-63 -79 -149 -98 -190 -18 -41 -37 -82 -41 -90 -3 -8 -15 -49 -25 -90 -9 -41
-33 -131 -51 -200 -40 -147 -40 -149 -14 -125 11 10 20 22 20 26 0 4 14 29 31
54 26 38 45 53 108 81 99 46 177 71 243 79 29 4 73 11 98 16 24 6 89 7 145 4
86 -5 126 -8 215 -19 53 -7 123 -20 175 -33 66 -17 71 -18 165 -32 103 -17
200 -48 224 -73 59 -62 123 -154 113 -164 -2 -3 -17 2 -33 10 -16 8 -47 22
-69 31 -22 9 -48 20 -58 26 -10 5 -22 7 -27 4 -6 -4 -10 -2 -10 3 0 8 -58 24
-136 38 -16 3 -56 12 -88 20 -32 9 -71 17 -85 19 -14 1 -46 8 -69 15 -42 11
-59 14 -148 25 -22 3 -55 10 -73 15 -19 5 -38 7 -42 4 -5 -3 -9 -1 -9 4 0 9
-67 8 -146 -3 -27 -4 -61 -8 -76 -10 -77 -11 -153 -28 -217 -50 -39 -13 -71
-22 -71 -19 0 2 -17 -4 -38 -15 -21 -11 -55 -44 -81 -80 -25 -34 -50 -61 -56
-61 -7 0 -20 -9 -31 -21 -17 -18 -19 -37 -19 -148 0 -69 -3 -130 -7 -136 -15
-25 -82 -211 -93 -260 -16 -70 -22 -191 -13 -277 11 -117 14 -127 32 -102 20
27 88 25 119 -4 61 -57 128 -43 178 38 36 59 53 70 108 70 30 0 41 4 41 16 0
8 16 22 36 30 34 14 41 14 143 -18 103 -32 111 -33 281 -33 96 0 216 4 267 8
85 7 93 6 111 -13 l19 -21 42 23 43 23 51 -56 c29 -31 67 -74 85 -97 l33 -42
3215 0 3214 0 -1 538 0 538 -40 0 c-21 0 -39 -3 -39 -8 0 -4 -6 -8 -13 -8 -8
0 -26 -15 -42 -34 -16 -19 -39 -37 -51 -40 -31 -8 -106 -18 -126 -18 -10 0
-20 -4 -23 -9 -4 -5 -11 -7 -16 -3 -5 3 -16 0 -24 -6 -8 -7 -15 -9 -15 -5 0 4
-7 2 -15 -5 -8 -7 -15 -9 -15 -5 0 4 -6 3 -12 -2 -7 -6 -44 -18 -81 -28 -38
-10 -71 -25 -74 -33 -5 -11 -7 -11 -14 -1 -6 10 -11 10 -25 -2 -9 -8 -19 -13
-20 -12 -6 4 -108 -36 -145 -57 -13 -7 -18 -4 -22 11 -3 10 -1 22 4 25 5 3 7
10 4 15 -8 11 35 89 49 90 6 1 14 1 19 0 4 0 7 3 7 8 0 5 15 13 33 16 17 4 37
11 42 15 13 10 120 44 121 39 0 -2 7 1 15 7 15 13 219 72 266 78 74 10 103 19
96 30 -5 8 -3 8 8 -1 16 -13 61 5 117 46 l32 25 0 459 -1 459 -27 -7 c-15 -3
-35 -8 -44 -11 -13 -4 -17 2 -17 23 -1 15 -3 39 -5 53 -2 14 -4 33 -5 43 0 10
-5 15 -11 12 -5 -3 -10 0 -10 8 0 16 -29 27 -77 27 -17 0 -59 9 -93 19 -68 21
-72 21 -168 -26 -45 -22 -62 -25 -113 -20 -33 3 -78 15 -102 28 -23 12 -73 38
-112 58 -38 19 -72 38 -75 41 -3 4 -26 17 -52 29 -54 25 -126 27 -193 4 -33
-12 -125 -20 -145 -13 -3 1 -14 3 -25 5 -28 5 -96 36 -127 58 -16 10 -28 15
-28 11 0 -3 -6 -2 -12 3 -7 6 -36 18 -65 27 -46 15 -55 15 -86 2 -42 -17 -57
-41 -50 -80 11 -58 -63 -64 -127 -11 -38 31 -58 39 -97 38 -17 -1 -16 12 0 25
13 12 51 9 102 -6 38 -12 77 2 74 25 -2 10 0 30 4 45 18 70 171 53 342 -38 39
-20 79 -39 90 -41 87 -14 123 -14 173 -3 32 7 61 16 65 20 4 4 27 4 50 -1 23
-4 45 -5 49 -3 4 2 10 -1 13 -7 4 -5 13 -8 21 -5 8 3 14 1 14 -4 0 -6 7 -10
15 -10 8 0 15 -4 15 -10 0 -5 5 -10 11 -10 5 0 27 -11 47 -25 20 -14 45 -25
54 -25 10 0 18 -4 18 -8 0 -9 64 -32 105 -38 95 -15 110 -14 183 10 93 29 145
39 137 26 -6 -9 11 -14 43 -13 7 1 11 -2 8 -5 -10 -10 53 -32 110 -38 29 -4
51 -11 48 -15 -3 -5 3 -9 13 -9 17 0 40 -25 54 -60 4 -8 7 17 8 56 l0 71 -57
18 c-31 9 -105 34 -163 56 -121 44 -460 145 -654 194 -231 60 -299 76 -330 81
-16 3 -43 9 -60 14 -16 5 -41 11 -55 14 -14 3 -43 12 -65 20 -22 8 -69 20
-105 26 -90 17 -117 28 -123 51 -3 12 -11 17 -20 13 -12 -4 -14 0 -10 15 4 17
1 21 -20 21 -14 0 -32 6 -39 14 -8 7 -32 19 -53 27 -22 7 -44 17 -49 21 -6 4
-16 8 -24 8 -7 0 -19 6 -27 13 -30 28 -56 47 -65 47 -6 0 -10 5 -10 11 0 5 -5
7 -12 3 -7 -4 -8 -3 -4 4 3 6 -3 16 -14 22 -11 6 -20 7 -20 3 0 -4 -7 0 -15
11 -7 10 -29 20 -47 21 -18 2 -36 4 -40 4 -3 1 -4 27 -1 59 15 168 -162 499
-320 599 -42 27 -159 73 -249 98 -32 9 -58 18 -58 20 0 1 12 29 27 61 27 59
29 64 32 85 0 5 6 7 13 3 7 -4 8 -3 4 5 -4 6 0 24 9 38 22 33 44 139 38 181
-3 17 -1 32 3 32 11 0 9 157 -2 184 -6 15 -4 17 7 11 12 -8 12 -6 0 8 -7 9
-11 25 -8 36 2 10 0 25 -4 34 -5 9 -12 44 -15 78 -2 35 -9 68 -13 73 -5 6 -11
26 -13 45 -4 30 0 39 34 72 38 36 45 65 13 53 -8 -4 -12 -10 -9 -15 3 -5 -2
-6 -10 -3 -9 3 -16 10 -16 15 0 5 -8 9 -17 9 -17 1 -17 1 0 11 9 6 15 15 12
20 -4 5 -10 7 -15 4 -5 -3 -12 -1 -15 5 -4 6 -3 10 2 9 21 -4 34 2 27 13 -5 7
-2 9 7 6 18 -7 43 18 28 28 -6 3 -9 16 -7 28 6 30 -23 78 -56 94 -22 11 -25
16 -16 28 12 13 8 67 -21 314 -18 150 -84 316 -153 383 -22 22 -40 44 -38 48
1 5 -2 9 -8 9 -5 0 -7 7 -3 16 4 12 7 13 14 3 4 -8 5 22 2 66 -11 162 -11 251
0 290 6 22 12 60 14 85 1 25 3 50 4 55 0 6 -3 66 -7 135 -4 69 -8 139 -8 157
0 20 -4 30 -10 26 -6 -4 -5 1 3 10 7 9 10 17 6 17 -4 0 -3 6 3 13 12 14 11 35
-2 56 -7 11 -5 13 9 7 15 -5 16 -4 5 9 -7 8 -9 15 -5 15 4 0 2 6 -4 14 -7 9
-8 16 -2 20 14 9 8 80 -8 99 -10 13 -11 20 -2 31 8 10 9 16 1 21 -5 3 -10 11
-10 17 0 6 7 5 17 -3 15 -13 15 -12 6 6 -6 11 -11 22 -11 25 0 15 -14 87 -20
100 -11 29 -9 48 4 43 22 -8 16 6 -16 37 -17 17 -26 30 -20 30 6 0 8 5 5 10
-4 6 -11 8 -16 5 -5 -3 -6 0 -3 8 3 8 0 18 -5 22 -6 3 -9 11 -6 16 4 5 -1 9
-10 9 -11 0 -14 7 -11 24 4 20 1 24 -12 19 -14 -5 -14 -3 2 9 17 14 17 15 -10
33 -16 10 -42 31 -57 47 -15 16 -39 33 -52 38 -27 10 -25 40 3 40 25 0 -53 50
-82 52 -13 1 -22 6 -20 10 3 4 -2 8 -11 8 -9 0 -14 4 -10 9 3 6 -4 8 -15 6
-18 -3 -24 5 -22 26 1 4 -7 5 -16 2 -11 -2 -33 10 -56 32 -25 24 -46 35 -58
32 -10 -3 -15 -1 -12 4 3 5 -3 12 -13 15 -10 3 -31 11 -48 19 -46 20 -98 39
-114 42 -8 1 -17 6 -20 11 -3 5 -27 17 -53 27 -26 9 -46 22 -45 29 1 6 -8 11
-20 10 -13 0 -23 4 -23 10 0 6 -4 4 -10 -4 -5 -8 -12 -11 -16 -7 -4 3 -1 15 7
24 13 16 12 17 -3 5 -11 -9 -18 -10 -23 -2 -9 15 -103 10 -116 -7 -6 -7 -15
-10 -20 -7 -5 3 -9 0 -9 -7 0 -7 -8 -4 -17 7 -10 10 -25 20 -33 22 -8 2 -17 7
-20 11 -9 13 -36 19 -50 11 -7 -4 -26 0 -44 11 -18 10 -46 20 -64 22 -17 2
-37 8 -44 14 -19 16 -109 24 -124 12 -9 -8 -11 -5 -7 9 5 20 -20 37 -38 26 -6
-3 -21 1 -34 10 -24 16 -57 21 -67 10z m-324 -122 c3 -5 -1 -9 -9 -9 -8 0 -12
4 -9 9 3 4 7 8 9 8 2 0 6 -4 9 -8z m1068 -117 c11 -21 8 -18 -32 30 -24 29
-24 29 -2 10 13 -11 28 -29 34 -40z m-667 -53 c-3 -3 -11 0 -18 7 -9 10 -8 11
6 5 10 -3 15 -9 12 -12z m90 -72 c3 -5 1 -10 -4 -10 -6 0 -11 5 -11 10 0 6 2
10 4 10 3 0 8 -4 11 -10z m475 -85 c0 -5 -5 -3 -10 5 -5 8 -10 20 -10 25 0 6
5 3 10 -5 5 -8 10 -19 10 -25z m910 -395 c0 -5 -2 -10 -4 -10 -3 0 -8 5 -11
10 -3 6 -1 10 4 10 6 0 11 -4 11 -10z m-1700 -541 c3 -3 13 -9 23 -12 20 -7
18 -34 -2 -29 -19 4 -11 -12 16 -32 18 -13 31 -16 42 -10 19 11 64 6 56 -6 -5
-8 30 -17 74 -18 13 -1 37 6 53 14 17 9 32 13 35 10 4 -3 20 3 37 13 18 11 60
21 98 25 36 3 78 10 92 16 28 10 59 3 50 -11 -3 -6 13 -8 38 -7 27 2 42 -1 41
-8 -1 -7 38 -11 120 -11 82 0 122 -4 125 -11 2 -7 17 -12 33 -12 30 0 42 -21
36 -64 -2 -17 8 -25 53 -46 8 -4 16 -17 18 -28 3 -18 0 -21 -15 -15 -10 4 -21
11 -25 17 -4 6 -10 7 -14 3 -4 -4 0 -15 9 -25 10 -10 17 -26 17 -35 0 -9 8
-18 18 -19 9 0 22 -2 27 -3 6 -2 14 -3 19 -4 14 -2 -25 -41 -41 -41 -7 0 -13
-6 -13 -14 0 -23 -49 -76 -65 -70 -7 3 -23 -6 -35 -19 -13 -15 -30 -24 -41
-22 -17 4 -23 -4 -16 -22 1 -4 12 -8 25 -9 21 -3 62 29 62 48 0 4 5 8 11 8 6
0 9 -6 6 -14 -6 -15 16 -40 26 -30 3 3 11 3 17 -1 9 -6 9 -10 -1 -16 -11 -7
-10 -9 4 -9 20 0 21 -4 5 -29 -6 -10 -18 -16 -27 -14 -11 3 -20 -6 -27 -24
-11 -28 -10 -29 20 -25 24 3 28 1 16 -7 -12 -8 -8 -12 19 -17 31 -7 33 -8 13
-15 -21 -8 -28 -33 -24 -89 0 -8 -5 -18 -11 -22 -7 -4 5 -8 26 -8 24 0 40 5
43 15 4 11 20 14 62 12 41 -1 56 1 55 11 -2 6 2 12 7 12 6 0 10 -6 10 -14 0
-9 7 -12 23 -9 17 4 19 3 7 -6 -12 -8 -9 -12 18 -17 24 -5 30 -9 20 -16 -10
-7 -10 -11 5 -22 24 -19 21 -26 -10 -26 -16 0 -23 -3 -16 -8 20 -12 -19 -48
-62 -56 -22 -5 -48 -8 -57 -9 -10 -1 -18 -7 -18 -13 0 -8 -8 -10 -22 -6 -17 4
-20 2 -15 -11 5 -13 1 -17 -15 -17 -11 0 -26 -7 -32 -15 -6 -8 -23 -16 -38
-17 -15 -1 -25 -5 -23 -8 3 -5 -16 -15 -70 -35 -11 -4 -31 -9 -45 -11 -50 -6
-69 -14 -74 -32 -3 -9 -20 -23 -38 -30 -18 -7 -41 -17 -50 -22 -9 -6 -35 -13
-57 -16 -23 -4 -38 -10 -35 -15 3 -5 -3 -9 -13 -9 -9 0 -26 -9 -38 -20 -51
-48 -63 -55 -103 -57 -23 -2 -42 2 -42 7 0 6 -7 10 -15 10 -8 0 -15 5 -15 10
0 6 -5 10 -11 10 -5 0 -7 -5 -4 -10 4 -7 -8 -8 -34 -4 -34 5 -41 4 -41 -10 0
-21 -41 -21 -81 0 -17 8 -39 12 -51 8 -11 -3 -48 -8 -82 -10 -34 -1 -92 -6
-131 -10 -38 -4 -95 -7 -127 -8 -31 -1 -55 -3 -53 -6 2 -3 -18 -5 -43 -5 -26
1 -69 -7 -96 -17 -28 -9 -52 -16 -54 -13 -5 5 -114 -34 -126 -46 -16 -15 -46
-10 -46 7 0 10 -6 14 -15 10 -8 -3 -15 -1 -15 3 0 5 6 12 13 14 7 3 5 6 -5 6
-10 1 -18 -3 -18 -9 0 -5 -7 -10 -15 -10 -13 0 -13 3 -3 20 7 11 19 20 26 20
8 0 11 9 8 25 -4 19 2 29 25 42 36 21 37 31 2 35 -14 2 -28 8 -30 14 -2 7 8 9
27 6 18 -3 30 0 30 7 0 6 -7 11 -15 11 -18 0 -19 12 -3 28 9 9 7 12 -9 12 -12
0 -25 5 -28 10 -3 6 -15 10 -26 10 -28 0 -23 18 11 47 28 23 29 26 14 38 -17
12 -16 26 2 69 5 14 4 17 -4 12 -7 -4 -21 -1 -33 7 -12 9 -16 16 -9 19 6 2 12
18 12 36 1 23 5 31 15 28 10 -4 9 1 -3 19 -15 23 -15 25 0 31 13 5 14 9 4 21
-9 11 -9 16 0 22 7 4 10 15 6 24 -3 10 -1 24 6 32 10 12 10 15 -1 15 -8 0 -6
5 6 13 10 8 15 19 11 25 -4 7 -3 12 3 12 6 0 8 7 5 15 -4 8 -2 15 4 15 5 0 12
6 15 14 4 10 -1 12 -16 9 -19 -4 -20 -3 -6 9 9 7 14 18 12 24 -2 6 8 27 22 48
14 20 25 41 25 45 0 5 7 12 16 15 8 3 13 9 10 14 -2 4 11 25 29 46 28 32 38
38 64 34 16 -2 27 0 24 4 -3 5 5 12 16 15 12 3 20 12 19 22 -2 11 11 20 47 32
45 14 48 17 30 27 -19 11 -19 11 3 12 12 0 22 5 22 10 0 6 15 10 33 10 25 0
29 3 17 11 -12 9 -11 10 7 6 12 -3 55 3 96 12 55 12 73 20 69 30 -3 10 0 12
11 8 9 -3 19 -2 22 3 4 6 -2 10 -12 10 -15 0 -16 2 -3 10 13 8 11 11 -7 16
-19 5 -22 11 -16 33 3 14 10 29 16 32 5 4 3 9 -4 13 -11 5 -11 7 -1 12 6 3 9
11 5 17 -6 10 33 -18 47 -34z m80 -43 c0 -3 -4 -8 -10 -11 -5 -3 -10 -1 -10 4
0 6 5 11 10 11 6 0 10 -2 10 -4z m1080 -466 c0 -13 -11 -13 -30 0 -12 8 -11
10 8 10 12 0 22 -4 22 -10z m-90 -190 c0 -5 -7 -10 -16 -10 -8 0 -12 5 -9 10
3 6 10 10 16 10 5 0 9 -4 9 -10z m600 -294 c0 -3 -4 -8 -10 -11 -5 -3 -10 -1
-10 4 0 6 5 11 10 11 6 0 10 -2 10 -4z m50 -189 c0 -15 4 -36 8 -45 5 -9 5
-30 1 -47 -6 -28 -7 -29 -9 -5 -2 21 -4 20 -10 -10 -6 -30 -8 -31 -9 -8 -1 35
9 59 22 51 6 -3 7 -1 3 5 -4 6 -13 9 -20 6 -9 -3 -13 5 -14 26 0 17 3 28 7 26
3 -3 7 4 7 14 0 13 -4 16 -12 10 -17 -15 -25 0 -12 23 10 20 11 20 24 2 8 -10
14 -32 14 -48z m-700 -107 c0 -6 -13 -10 -30 -10 -32 0 -37 9 -18 28 12 12 48
-1 48 -18z m-1640 -44 c0 -2 -7 -9 -15 -16 -13 -11 -14 -10 -9 4 5 14 24 23
24 12z m1102 -18 c-6 -6 -15 -8 -19 -4 -4 4 -1 11 7 16 19 12 27 3 12 -12z
m1281 -8 c3 -11 2 -20 -3 -20 -14 0 -32 29 -25 40 9 14 21 5 28 -20z m-210 2
c6 -5 31 -13 55 -17 23 -4 42 -12 42 -18 0 -14 36 -49 68 -66 12 -7 21 -15 18
-19 -3 -4 9 -14 25 -21 16 -7 29 -20 29 -29 -1 -15 -2 -15 -14 1 -7 9 -19 17
-26 17 -9 0 -7 -6 5 -20 10 -11 15 -23 12 -26 -3 -4 1 -13 9 -22 16 -15 15
-58 -1 -94 -5 -13 -3 -18 9 -18 9 0 16 -8 15 -17 0 -12 -2 -13 -6 -5 -8 21
-42 -15 -36 -39 6 -22 -15 -26 -23 -4 -4 8 -13 15 -21 15 -11 0 -10 -7 7 -30
20 -28 20 -30 3 -30 -13 0 -14 -3 -5 -8 9 -6 7 -13 -8 -28 -32 -31 -49 -44
-60 -44 -5 0 -10 -5 -10 -11 0 -5 -4 -8 -9 -5 -12 8 -71 -14 -71 -25 0 -21
-179 14 -222 43 -14 10 -31 18 -38 18 -7 0 -10 6 -7 14 6 16 -121 50 -149 39
-12 -4 -15 -3 -10 5 5 8 -1 12 -18 12 -14 0 -28 -5 -31 -10 -4 -7 -21 4 -40
25 -19 19 -42 35 -52 35 -28 1 -53 25 -53 51 1 23 1 23 15 5 8 -11 18 -17 21
-13 4 4 -3 15 -15 26 -33 28 -73 92 -67 107 3 7 0 15 -7 17 -7 2 -10 7 -7 10
6 6 175 29 208 28 12 0 22 4 22 9 0 6 10 10 23 10 13 0 29 6 36 13 11 9 14 9
18 0 4 -10 8 -10 19 1 7 8 35 22 61 32 59 22 94 44 88 54 -4 7 34 29 75 43 23
7 109 0 123 -11z m-1015 -11 c20 -1 32 -6 32 -15 0 -8 11 -17 25 -20 13 -3 29
-16 35 -27 7 -11 28 -37 49 -57 88 -85 123 -133 145 -194 34 -94 109 -248 122
-248 6 0 12 11 12 25 0 47 53 86 91 66 29 -16 80 -85 87 -119 8 -41 -51 -108
-104 -118 -63 -12 -116 -40 -158 -85 -75 -81 -142 -101 -269 -79 -40 7 -64 4
-118 -12 -126 -37 -283 -15 -293 42 -7 39 -22 94 -23 83 -1 -7 -8 -13 -16 -13
-9 0 -18 -6 -21 -14 -4 -12 -10 -10 -27 7 -12 12 -22 27 -22 32 -1 22 -33 1
-90 -58 -33 -35 -71 -77 -85 -93 -14 -17 -61 -54 -104 -83 l-79 -52 -90 5
c-49 2 -92 7 -95 11 -4 3 -7 16 -7 28 0 15 -7 23 -23 25 -25 4 -63 57 -56 77
3 7 1 16 -4 19 -6 3 -8 27 -6 53 l4 48 -17 -34 c-25 -48 -50 -62 -68 -37 -11
14 -11 24 -4 38 6 11 8 22 5 26 -3 3 -6 0 -6 -6 0 -7 -4 -12 -10 -12 -5 0 -10
7 -10 15 0 9 -9 15 -22 15 -13 0 -29 4 -37 9 -11 7 -11 10 0 17 15 10 22 44 9
44 -5 0 -11 -8 -13 -17 -3 -12 -5 -8 -6 9 0 14 -6 28 -13 30 -6 2 -12 13 -12
24 -1 11 -5 24 -9 31 -4 6 0 16 8 23 19 16 20 44 1 37 -8 -3 -16 2 -19 14 -3
12 0 19 9 19 17 0 19 17 3 22 -8 3 -8 11 2 27 12 19 12 24 1 28 -10 4 -8 11 7
27 20 21 20 66 0 66 -5 0 -9 9 -9 20 0 14 7 20 21 20 11 0 17 -4 14 -10 -10
-16 32 -11 49 6 9 8 16 12 16 8 0 -3 6 -1 14 5 11 10 16 8 21 -8 7 -22 27 -30
22 -9 -1 8 10 12 33 11 19 -1 64 -2 100 -3 69 -1 105 -12 76 -23 -9 -4 -16
-14 -16 -23 0 -10 3 -14 6 -11 4 3 15 2 25 -3 12 -7 20 -7 24 0 3 5 13 10 21
10 8 0 13 -3 11 -7 -10 -15 77 -13 151 3 52 11 76 13 81 6 4 -7 12 -8 21 -2 8
6 25 10 36 10 12 0 33 9 48 21 14 11 29 18 34 16 4 -3 23 1 42 9 24 10 31 17
22 23 -11 6 -10 10 0 18 22 17 45 26 26 10 -22 -17 -23 -27 -4 -27 23 0 39 26
28 47 -14 26 8 45 31 28 9 -7 17 -17 17 -22 0 -12 -76 -83 -89 -83 -5 0 -11
-7 -14 -15 -5 -10 3 -9 31 6 20 12 41 25 47 30 5 5 17 9 26 9 10 0 21 9 24 20
3 11 18 23 32 26 34 9 64 40 57 59 -4 10 0 15 10 15 9 0 16 -4 16 -10 0 -5 7
-10 15 -10 8 0 15 7 15 15 0 8 5 15 11 15 5 0 8 3 5 8 -5 8 31 121 44 137 5 6
22 10 37 9 15 -1 43 -2 61 -3z m1246 -37 c4 -10 1 -14 -6 -12 -15 5 -23 28
-10 28 5 0 13 -7 16 -16z m-1994 -109 c14 -16 10 -18 -35 -15 -39 3 -51 10
-34 21 22 14 55 11 69 -6z m360 11 c0 -3 -4 -8 -10 -11 -5 -3 -10 -1 -10 4 0
6 5 11 10 11 6 0 10 -2 10 -4z m-260 -56 c0 -5 -12 -10 -27 -9 -25 0 -26 1 -8
9 27 12 35 12 35 0z m-100 -10 c0 -5 -2 -10 -4 -10 -3 0 -8 5 -11 10 -3 6 -1
10 4 10 6 0 11 -4 11 -10z m-565 -19 c3 -5 1 -12 -5 -16 -6 -4 -7 -12 -4 -18
4 -7 -1 -5 -11 5 -9 9 -14 21 -11 27 9 13 23 14 31 2z m500 -11 c-3 -6 1 -7 9
-4 9 4 16 1 16 -6 0 -10 3 -10 15 0 12 10 15 10 15 -4 0 -9 -15 -22 -32 -29
-28 -11 -37 -11 -60 2 -34 19 -35 25 -5 39 28 14 50 15 42 2z m-532 -37 c-7
-3 -9 -11 -6 -19 3 -8 -1 -14 -10 -14 -10 0 -13 7 -10 24 4 18 10 23 21 18 10
-3 11 -7 5 -9z m22 -23 c3 -5 1 -10 -4 -10 -6 0 -11 5 -11 10 0 6 2 10 4 10 3
0 8 -4 11 -10z m780 -40 c-3 -5 -12 -10 -18 -10 -7 0 -6 4 3 10 19 12 23 12
15 0z m-748 -46 c-3 -3 -12 -4 -19 -1 -8 3 -5 6 6 6 11 1 17 -2 13 -5z m2053
-230 c0 -11 -5 -14 -16 -10 -9 3 -21 6 -27 6 -16 0 14 20 31 20 6 0 12 -7 12
-16z m-2115 -33 c3 -5 1 -12 -5 -16 -5 -3 -10 1 -10 9 0 18 6 21 15 7z m2118
2 c-7 -2 -21 -2 -30 0 -10 3 -4 5 12 5 17 0 24 -2 18 -5z m-1193 -147 c0 -3
-4 -8 -10 -11 -5 -3 -10 -1 -10 4 0 6 5 11 10 11 6 0 10 -2 10 -4z m55 -36 c3
-5 1 -10 -4 -10 -6 0 -11 5 -11 10 0 6 2 10 4 10 3 0 8 -4 11 -10z m12 -100
c3 -11 16 -23 28 -26 20 -5 22 -10 15 -38 -4 -17 -13 -43 -20 -56 -12 -22 -15
-22 -18 -7 -3 14 -7 16 -18 6 -11 -9 -14 -8 -14 4 0 13 -6 14 -30 7 -18 -5
-30 -5 -30 1 0 5 -10 11 -23 14 -22 6 -34 35 -15 35 5 0 6 5 3 11 -8 12 24 45
57 59 38 15 60 11 65 -10z m-722 -20 c3 -5 2 -10 -4 -10 -5 0 -13 5 -16 10 -3
6 -2 10 4 10 5 0 13 -4 16 -10z m40 -50 c3 -5 1 -10 -4 -10 -6 0 -11 5 -11 10
0 6 2 10 4 10 3 0 8 -4 11 -10z m737 -52 c-7 -7 -12 -8 -12 -2 0 6 3 14 7 17
3 4 9 5 12 2 2 -3 -1 -11 -7 -17z m698 -13 c0 -8 -7 -15 -15 -15 -9 0 -18 -7
-21 -15 -10 -26 -75 -55 -145 -65 -38 -5 -72 -10 -76 -11 -32 -5 -34 3 -8 31
24 26 54 38 105 45 21 3 51 14 80 30 35 19 80 19 80 0z m280 -59 c0 -21 -6
-36 -16 -40 -8 -3 -13 -2 -9 3 3 5 2 11 -2 14 -5 2 -3 3 3 1 6 -1 11 4 11 12
0 7 -4 11 -8 9 -4 -3 -5 4 -2 15 8 32 23 23 23 -14z m-54 -8 c4 -6 9 -27 11
-47 2 -20 5 -46 8 -58 4 -19 1 -22 -25 -21 -16 1 -37 9 -46 20 -24 26 -34 22
-34 -12 0 -55 -78 -103 -107 -65 -12 18 -13 17 -13 -7 0 -13 -8 -32 -17 -41
-24 -21 -101 -40 -134 -33 -15 3 -29 1 -31 -5 -4 -11 -101 -39 -136 -39 -12 0
-25 7 -28 15 -4 10 -14 14 -25 10 -11 -3 -27 -7 -38 -10 -11 -4 -30 4 -49 20
l-30 25 -16 -25 c-22 -33 -40 -32 -67 6 -15 22 -25 27 -32 20 -19 -19 -45 -12
-71 21 -30 39 -24 52 18 44 50 -11 167 -13 172 -4 3 5 29 9 57 8 29 0 88 6
132 14 89 16 104 13 106 -18 1 -16 3 -14 8 8 5 24 16 32 70 52 76 29 91 30 91
7 1 -11 6 -6 14 12 9 20 28 37 56 50 41 19 43 19 56 0 8 -10 14 -14 14 -8 0
17 50 73 65 73 8 0 17 -5 21 -12z m-426 -42 c0 -3 -4 -8 -10 -11 -5 -3 -10 -1
-10 4 0 6 5 11 10 11 6 0 10 -2 10 -4z m424 -125 c3 -4 -6 -19 -19 -31 -26
-24 -33 -14 -15 21 11 20 25 25 34 10z m-67 -57 c2 -5 -16 -19 -39 -31 -80
-39 -129 -65 -126 -69 2 -1 21 1 43 6 62 15 74 13 68 -10 -4 -14 0 -20 10 -20
8 0 17 4 19 9 2 5 12 11 23 13 16 2 21 -3 23 -32 2 -19 8 -39 13 -44 18 -20 8
-36 -36 -57 -25 -12 -48 -25 -51 -30 -3 -5 -16 -9 -29 -9 -13 0 -27 -5 -30
-10 -4 -6 -15 -8 -26 -5 -13 5 -19 2 -19 -10 0 -12 -6 -15 -21 -10 -13 4 -27
1 -38 -9 -10 -9 -32 -18 -50 -20 -18 -2 -38 -9 -44 -15 -14 -14 -40 -15 -32
-1 3 5 -12 12 -35 16 -25 4 -40 12 -40 21 0 8 -6 13 -12 11 -7 -3 -17 4 -23
15 -5 11 -13 18 -16 16 -3 -2 -13 2 -22 10 -9 7 -24 11 -32 7 -8 -3 -15 -1
-15 5 0 18 -43 69 -59 69 -9 0 -34 12 -56 26 -36 23 -37 25 -13 21 17 -2 33 2
39 10 8 9 25 12 53 9 35 -4 39 -3 24 8 -25 18 -22 26 6 26 29 0 44 -19 25 -31
-16 -10 -10 -11 76 -14 28 -2 86 -6 129 -10 59 -6 77 -5 72 3 -4 7 -1 12 8 12
8 0 18 -5 21 -10 4 -6 11 -8 16 -5 18 12 8 22 -23 24 -46 3 -49 3 -80 -5 -15
-3 -36 -3 -45 1 -16 6 -15 8 7 20 14 8 39 15 55 15 17 0 62 12 100 26 39 14
80 28 92 31 12 3 30 14 39 24 18 20 45 22 51 3z m-861 -95 c27 -17 51 -34 54
-38 3 -4 16 -12 30 -19 98 -48 132 -70 114 -74 -15 -4 -10 -9 21 -23 22 -10
43 -18 48 -17 4 1 7 -4 7 -12 0 -8 10 -18 23 -22 35 -10 50 -26 36 -35 -9 -5
-8 -11 3 -23 9 -8 18 -13 21 -10 3 3 14 1 24 -5 14 -8 8 -10 -34 -11 -40 0
-51 -3 -49 -15 3 -21 36 -44 63 -45 12 0 25 -4 28 -10 3 -5 19 -10 35 -10 15
0 30 -7 34 -15 3 -8 12 -15 21 -15 8 0 15 -4 15 -10 0 -5 -4 -10 -10 -10 -5 0
-7 -6 -4 -13 3 -8 -2 -20 -11 -27 -8 -7 -15 -18 -15 -24 0 -20 -47 -60 -52
-45 -3 8 -11 10 -22 6 -12 -5 -15 -13 -11 -27 4 -12 -1 -29 -10 -42 l-17 -23
6 25 c6 29 -7 56 -23 46 -6 -4 -11 -2 -11 3 0 6 -4 11 -10 11 -6 0 -9 -5 -8
-11 2 -6 -3 -14 -9 -16 -7 -3 -13 2 -13 11 0 10 -6 13 -15 10 -9 -4 -15 0 -15
10 0 9 -5 16 -11 16 -6 0 -8 9 -4 22 6 17 4 20 -9 15 -10 -4 -15 -3 -12 2 8
12 -53 33 -68 24 -6 -4 -5 1 2 10 12 14 10 17 -19 24 -18 5 -35 15 -37 22 -3
10 0 11 16 2 27 -14 54 -15 32 -1 -12 7 -8 10 15 11 17 0 25 3 18 5 -7 3 -9
12 -6 20 4 10 -3 14 -22 14 -22 0 -25 3 -16 13 8 11 6 18 -9 32 -11 10 -17 22
-14 26 3 5 0 9 -5 9 -6 0 -11 -6 -11 -12 -1 -8 -6 -6 -14 5 -7 9 -19 17 -27
17 -9 -1 -5 -8 9 -20 13 -11 20 -25 17 -31 -6 -8 -10 -8 -15 2 -7 11 -24 15
-68 18 -7 1 -11 5 -7 11 3 5 12 7 20 3 10 -3 15 1 15 12 0 10 -5 15 -14 12 -7
-3 -20 3 -29 14 -9 10 -13 19 -9 19 4 0 -2 7 -12 15 -11 8 -14 15 -8 15 7 0
12 5 12 10 0 6 -6 10 -13 10 -7 0 -13 9 -14 20 -1 11 1 19 5 19 28 -4 34 2 16
16 -12 9 -14 14 -5 15 7 0 11 6 8 14 -3 8 -1 17 6 19 7 2 9 7 6 11 -4 4 -14 0
-22 -9 -18 -17 -31 -20 -22 -5 4 6 1 17 -5 25 -10 11 -10 15 -1 15 7 0 10 4 6
9 -3 5 -1 12 5 16 6 4 8 11 5 16 -12 19 23 8 71 -22z m159 -18 c-3 -6 -11 -11
-17 -11 -6 0 -6 6 2 15 14 17 26 13 15 -4z m70 -1 c7 -12 -2 -12 -30 0 -19 8
-19 9 2 9 12 1 25 -3 28 -9z m-196 -296 c-6 -8 -17 -14 -23 -13 -7 0 -6 2 2 6
6 2 12 11 12 19 0 9 5 12 10 9 8 -5 7 -11 -1 -21z m81 6 c0 -17 -26 -17 -27 1
-1 12 3 16 13 12 8 -3 14 -9 14 -13z m-23 -46 c-3 -3 -12 -4 -19 -1 -8 3 -5 6
6 6 11 1 17 -2 13 -5z m432 -116 c-5 -9 -6 -23 -3 -31 3 -8 1 -18 -5 -22 -6
-3 -11 -17 -11 -31 0 -13 -4 -24 -10 -24 -5 0 -10 5 -10 11 0 8 -5 8 -15 -1
-12 -10 -16 -9 -21 4 -5 14 -9 14 -22 4 -14 -12 -14 -10 -2 11 12 24 13 24 24
4 11 -21 11 -21 29 3 12 16 14 24 5 24 -9 0 -9 3 0 12 10 10 15 10 22 -2 5 -8
10 -10 10 -4 0 6 -7 17 -15 24 -23 19 -18 38 9 36 19 -1 22 -4 15 -18z m-669
-452 c0 -3 -4 -8 -10 -11 -5 -3 -10 -1 -10 4 0 6 5 11 10 11 6 0 10 -2 10 -4z
m12 -23 c-6 -2 -10 -9 -6 -14 3 -5 1 -9 -5 -9 -5 0 -12 4 -15 9 -6 9 10 19 29
19 6 0 4 -2 -3 -5z m58 -18 c0 -7 -4 -15 -8 -17 -4 -1 0 -11 10 -20 14 -14 18
-15 18 -4 0 8 -6 17 -12 19 -7 3 -1 6 14 6 15 1 29 -3 33 -9 3 -5 12 -7 19 -4
7 3 16 -2 19 -10 4 -10 1 -13 -9 -9 -12 4 -14 0 -9 -20 4 -15 2 -28 -6 -32 -8
-5 -10 -4 -5 3 4 7 2 12 -3 12 -6 0 -11 -7 -11 -15 0 -12 7 -14 28 -9 36 9 37
11 22 29 -7 9 -8 15 -2 15 6 0 18 3 28 7 13 5 16 3 11 -10 -3 -9 -2 -17 4 -17
6 0 7 -4 4 -10 -9 -14 8 -12 24 3 8 6 11 7 8 1 -3 -5 5 -18 18 -28 14 -10 22
-22 19 -27 -3 -5 2 -9 10 -9 9 0 16 -4 16 -10 0 -5 6 -10 13 -11 6 0 22 -13
34 -29 l23 -28 -23 6 c-12 3 -28 13 -35 21 -8 9 -11 11 -8 4 4 -6 -3 -15 -15
-18 -15 -5 -18 -10 -9 -15 8 -5 7 -9 -5 -13 -9 -4 -13 -3 -10 3 3 6 0 10 -7
10 -10 0 -10 2 1 9 12 8 12 10 0 14 -8 2 -3 2 10 0 20 -4 22 -2 13 10 -12 15
-53 18 -52 5 0 -4 3 -15 7 -24 5 -15 -11 -33 -29 -34 -13 0 -9 28 5 33 9 4 9
6 0 6 -6 1 -15 -3 -18 -9 -10 -16 -28 -11 -21 6 3 8 -2 23 -11 32 -16 16 -16
16 -11 -3 4 -18 0 -21 -33 -21 -22 0 -39 3 -39 7 0 4 -3 16 -6 26 -3 10 -2 14
3 8 4 -6 21 -8 38 -4 l30 7 -27 1 c-19 1 -28 6 -28 17 0 10 -5 14 -15 10 -9
-3 -18 1 -21 9 -4 8 -12 15 -20 15 -8 0 -14 5 -14 11 0 7 7 8 18 4 33 -14 47
-10 50 13 2 12 7 20 12 17 5 -3 11 -1 14 4 10 15 -23 6 -45 -13 -19 -15 -22
-16 -32 -2 -7 8 -23 20 -37 26 -21 9 -19 10 20 6 37 -4 42 -2 29 7 -21 15 -23
68 -3 60 8 -3 14 -11 14 -18z m-40 -10 c0 -8 -4 -15 -10 -15 -5 0 -7 7 -4 15
4 8 8 15 10 15 2 0 4 -7 4 -15z m-60 1 c0 -11 -19 -15 -25 -6 -3 5 1 10 9 10
9 0 16 -2 16 -4z m38 -97 c-6 -4 -8 -11 -4 -17 3 -5 -2 -16 -12 -23 -15 -12
-16 -12 -6 1 6 8 9 27 8 42 -2 23 0 25 11 15 8 -8 9 -14 3 -18z m-1067 -75
c24 -9 56 -16 72 -16 17 1 27 -5 27 -14 0 -19 -36 -54 -57 -55 -10 -1 -25 -2
-33 -3 -8 -1 -33 4 -54 11 -33 11 -43 11 -63 -2 -12 -9 -23 -14 -23 -11 0 13
32 77 45 90 20 20 32 20 86 0z m1092 9 c-7 -2 -19 -2 -25 0 -7 3 -2 5 12 5 14
0 19 -2 13 -5z m133 -65 c4 -7 3 -8 -4 -4 -7 4 -12 1 -12 -9 0 -9 3 -14 8 -12
4 3 14 -2 22 -11 13 -14 12 -15 -3 -9 -15 6 -17 3 -12 -14 4 -13 3 -19 -3 -15
-12 7 -24 65 -16 77 7 12 11 11 20 -3z m471 -10 c-3 -8 -6 -5 -6 6 -1 11 2 17
5 13 3 -3 4 -12 1 -19z m-551 -15 c-10 -10 -19 5 -10 18 6 11 8 11 12 0 2 -7
1 -15 -2 -18z m522 13 c10 -10 -42 -6 -58 5 -11 7 -7 9 18 5 19 -2 36 -7 40
-10z m-491 -18 c-3 -8 -6 -5 -6 6 -1 11 2 17 5 13 3 -3 4 -12 1 -19z m123 -11
c13 -5 13 -6 -1 -6 -8 -1 -24 6 -35 15 -19 15 -19 15 1 6 11 -5 27 -12 35 -15z
m99 -7 c39 -24 51 -40 32 -40 -6 0 -13 5 -16 10 -3 6 -18 10 -33 10 -22 0 -24
2 -12 10 11 8 8 9 -12 4 -18 -4 -28 -2 -28 5 0 7 -10 16 -22 20 -19 8 -17 9
14 7 21 -1 55 -13 77 -26z m1546 -127 c-26 -76 -53 -151 -60 -168 -7 -16 -20
-50 -31 -75 -24 -61 -32 -70 -61 -70 -20 0 -24 4 -18 18 3 9 9 29 12 45 3 15
10 27 15 27 5 0 7 4 3 9 -3 5 -1 12 4 15 5 3 7 16 3 28 -3 14 -1 19 6 14 13
-8 20 2 27 44 7 37 20 66 44 95 9 11 23 38 30 60 14 39 61 108 69 100 2 -2
-17 -66 -43 -142z m-1805 127 c0 -5 -4 -10 -10 -10 -5 0 -10 5 -10 10 0 6 5
10 10 10 6 0 10 -4 10 -10z m535 -10 c3 -6 -4 -10 -17 -10 -18 0 -20 2 -8 10
19 12 18 12 25 0z m29 -6 c3 -8 2 -12 -4 -9 -6 3 -10 10 -10 16 0 14 7 11 14
-7z m-424 2 c0 -2 -12 -12 -27 -21 l-28 -18 19 21 c17 20 36 29 36 18z m27
-11 c0 -8 -4 -12 -9 -9 -5 3 -6 10 -3 15 9 13 12 11 12 -6z m-67 -38 c10 -4 8
-6 -7 -6 -12 -1 -24 -7 -27 -13 -3 -7 -3 -3 0 10 3 12 1 22 -5 22 -6 0 -11 5
-11 12 0 7 6 6 18 -4 9 -9 24 -18 32 -21z m-130 -3 c0 -2 -9 -4 -21 -4 -11 0
-18 4 -14 10 5 8 35 3 35 -6z m80 -5 c0 -5 -4 -9 -10 -9 -5 0 -10 7 -10 16 0
8 5 12 10 9 6 -3 10 -10 10 -16z m-1542 -15 c17 -7 32 -11 32 -9 0 3 9 -3 20
-12 20 -17 32 -21 88 -25 36 -2 40 -14 17 -58 -17 -33 -20 -33 -130 20 -56 27
-68 29 -196 31 -131 2 -138 1 -195 -26 -51 -25 -72 -29 -157 -30 l-97 -2 -33
-35 c-17 -20 -41 -46 -52 -59 -25 -30 -33 -32 -120 -31 -52 0 -91 -8 -154 -30
-74 -26 -90 -29 -122 -19 -84 25 -124 8 -163 -69 -20 -40 -27 -45 -59 -48 -44
-4 -46 4 -11 66 42 75 65 89 134 81 59 -6 114 -2 117 8 3 7 11 9 19 6 8 -3 14
-1 14 4 0 6 26 18 58 27 50 16 78 20 170 25 14 0 45 23 77 56 44 44 61 55 87
55 143 1 184 7 246 39 34 17 62 29 62 26 0 -4 6 -3 12 1 7 5 50 8 96 7 48 -1
99 4 120 12 39 14 65 11 120 -11z m1635 7 c-3 -11 -11 -22 -19 -25 -22 -9 -17
-28 6 -21 11 4 20 2 20 -4 0 -6 -4 -11 -9 -11 -5 0 -17 -3 -27 -7 -11 -4 -15
-3 -11 4 4 6 0 13 -8 17 -8 3 -15 13 -15 21 0 9 4 14 8 11 4 -2 19 4 32 15 14
10 26 19 27 19 0 0 -1 -9 -4 -19z m587 10 c0 -5 14 -12 30 -16 17 -4 30 -11
30 -16 0 -5 -11 -7 -25 -3 -14 3 -49 10 -78 14 -50 7 -50 8 -12 9 30 1 36 4
25 11 -12 8 -11 10 8 10 12 0 22 -4 22 -9z m-486 -17 c8 -22 8 -24 -6 -24 -6
0 -8 3 -5 7 4 3 2 12 -4 20 -7 8 -8 13 -1 13 5 0 13 -7 16 -16z m-228 -13 c0
-12 -6 -17 -18 -13 -18 4 -18 5 -1 18 10 7 18 14 18 14 1 0 1 -8 1 -19z m169
-4 c15 -4 14 -5 -7 -6 -21 -1 -28 4 -28 17 0 11 3 13 8 6 4 -7 16 -14 27 -17z
m522 -3 c-3 -3 -12 -4 -19 -1 -8 3 -5 6 6 6 11 1 17 -2 13 -5z m48 -35 c-4 -5
-11 -9 -16 -9 -6 0 -7 5 -4 10 3 6 1 10 -4 10 -6 0 -11 5 -11 10 0 7 7 7 20 0
11 -6 18 -15 15 -21z m-527 12 c10 -6 8 -10 -9 -14 -13 -4 -25 -4 -28 -2 -2 3
2 6 10 6 8 1 1 5 -16 9 l-30 8 30 1 c17 0 36 -3 43 -8z m465 2 c-7 -2 -19 -2
-25 0 -7 3 -2 5 12 5 14 0 19 -2 13 -5z m-517 -24 c3 -6 14 -9 24 -6 9 2 25 0
35 -6 12 -6 16 -6 11 1 -3 6 -2 13 4 17 5 3 10 1 10 -4 0 -6 8 -11 18 -11 9
-1 28 -8 42 -16 24 -14 24 -15 3 -11 -18 4 -23 1 -23 -14 0 -21 16 -26 22 -8
2 7 15 9 34 5 34 -8 74 -60 52 -69 -8 -3 -6 -6 5 -6 9 -1 17 -6 17 -11 0 -6
11 -8 26 -4 19 5 25 4 20 -5 -5 -7 1 -11 16 -11 18 0 20 2 8 10 -8 5 -11 10
-6 10 5 0 24 -11 42 -25 18 -14 36 -25 41 -25 4 0 1 5 -7 10 -10 6 -11 10 -3
10 7 0 20 -11 28 -24 12 -18 25 -24 55 -24 49 -1 68 -10 49 -24 -9 -6 4 -8 39
-4 50 5 58 1 53 -27 -1 -5 3 -6 9 -2 6 3 8 10 5 14 -2 5 7 6 20 3 15 -2 25 0
25 7 0 6 11 11 24 11 14 0 28 5 31 10 8 12 26 13 23 1 -2 -5 -1 -10 2 -11 11
-4 66 14 72 24 5 7 8 7 8 -2 0 -7 5 -10 10 -7 6 4 8 10 6 14 -5 8 12 11 53 11
14 0 21 3 17 7 -3 4 12 15 34 25 41 19 50 33 28 41 -7 2 -9 8 -5 13 4 5 12 2
18 -6 7 -12 11 -13 18 -2 4 8 17 12 27 10 12 -2 18 2 16 10 -2 9 6 12 20 10
13 -2 23 -10 23 -18 0 -10 10 -15 28 -15 15 1 27 -3 27 -7 0 -11 -39 -30 -49
-23 -5 3 -7 -4 -4 -15 3 -12 8 -19 12 -18 3 2 18 10 34 17 15 8 27 22 27 33 0
11 5 16 11 13 5 -4 19 1 30 11 10 9 22 15 24 12 3 -3 -8 -17 -24 -31 -25 -21
-28 -26 -14 -31 9 -4 20 -1 24 6 6 10 13 7 28 -9 12 -12 17 -25 12 -28 -5 -3
-12 -1 -16 5 -3 5 -11 10 -17 10 -7 0 -6 -6 2 -15 7 -8 23 -15 37 -15 24 0 24
0 7 -32 -32 -62 -34 -68 -25 -68 5 0 11 6 14 14 7 18 47 41 47 27 0 -5 -9 -13
-20 -16 -36 -11 -22 -28 19 -22 34 4 38 3 34 -14 -3 -11 -9 -19 -13 -19 -4 0
-10 -9 -13 -21 -4 -15 -2 -19 9 -15 9 4 14 -1 14 -15 0 -11 -4 -18 -9 -15 -4
3 -19 -6 -32 -20 -19 -20 -21 -27 -10 -33 11 -7 9 -13 -8 -27 -11 -10 -21 -23
-21 -29 0 -10 -101 -143 -104 -137 -3 7 -56 -18 -56 -27 0 -5 -12 -12 -26 -15
-24 -6 -26 -10 -20 -47 6 -36 4 -40 -21 -50 -59 -23 -93 -23 -114 0 -19 21
-16 50 6 50 5 0 11 4 13 9 4 12 -50 6 -97 -10 -43 -15 -160 -88 -180 -111 -7
-10 -22 -17 -32 -17 -11 0 -19 -7 -19 -15 0 -8 -7 -15 -15 -15 -18 0 -19 -11
-2 -30 10 -12 9 -12 -4 -2 -8 6 -24 9 -36 6 -15 -4 -33 6 -65 38 -59 57 -120
108 -131 108 -5 0 -21 13 -37 28 -16 16 -43 35 -62 42 -18 8 -37 20 -41 27 -4
7 -13 13 -19 13 -7 0 -33 18 -59 40 -26 22 -51 40 -54 40 -4 0 -20 9 -36 21
-16 11 -29 17 -29 14 0 -4 -16 3 -35 15 -19 12 -48 25 -63 29 -22 6 -27 13
-26 36 1 16 -7 38 -17 49 -11 11 -19 26 -19 33 0 7 -4 13 -10 13 -5 0 -10 11
-10 24 0 13 -7 29 -15 36 -8 7 -12 17 -9 22 3 5 -2 19 -13 30 -18 21 -18 21 5
15 17 -4 22 -2 18 8 -3 8 0 16 7 19 7 2 2 5 -10 5 -12 1 -24 5 -27 9 -3 5 5 8
17 8 19 -1 22 3 19 33 -3 22 0 31 7 26 6 -3 14 1 17 9 3 9 10 13 15 10 13 -8
49 5 49 18 0 6 -6 6 -15 -2 -12 -10 -15 -10 -15 0 0 7 -10 21 -22 31 -11 11
-16 19 -10 19 6 0 13 -4 16 -9 8 -12 76 -10 76 2 0 5 -13 7 -29 5 -21 -3 -28
-1 -24 9 3 7 9 13 15 13 5 0 6 5 3 10 -4 6 9 17 27 25 40 17 45 18 54 4z
m-579 -56 c-4 -3 0 -11 7 -17 8 -6 17 -21 21 -33 5 -19 2 -23 -15 -23 -13 0
-20 5 -17 13 2 6 1 22 -4 33 -7 20 -3 34 9 34 3 0 2 -3 -1 -7z m1693 -23 c18
-12 2 -12 -25 0 -13 6 -15 9 -5 9 8 0 22 -4 30 -9z m-1335 -20 c-3 -5 -10 -10
-16 -10 -5 0 -9 5 -9 10 0 6 7 10 16 10 8 0 12 -4 9 -10z m1689 -46 c3 -8 2
-12 -4 -9 -6 3 -10 1 -10 -6 0 -7 -3 -10 -6 -6 -7 6 2 37 10 37 2 0 7 -7 10
-16z m-157 -36 c-3 -8 -6 -5 -6 6 -1 11 2 17 5 13 3 -3 4 -12 1 -19z m-1506
-135 c13 -16 12 -17 -3 -4 -17 13 -22 21 -14 21 2 0 10 -8 17 -17z m1529 -107
c0 -2 -7 -9 -15 -16 -13 -11 -14 -10 -9 4 5 14 24 23 24 12z m-1337 -173 c4
-7 13 -13 18 -13 16 0 33 -21 48 -58 13 -30 12 -35 -6 -54 -20 -19 -22 -19
-46 -3 -20 13 -30 14 -46 6 -11 -6 -27 -11 -36 -11 -10 0 -39 -18 -65 -40 -27
-22 -63 -45 -80 -52 -30 -10 -34 -8 -69 26 l-36 37 45 40 c39 35 49 39 75 33
17 -4 52 -8 79 -8 48 -1 50 0 53 29 2 17 4 47 3 67 0 38 0 38 27 26 16 -7 32
-18 36 -25z m-484 12 c9 -3 30 -25 48 -49 l32 -43 -46 2 c-30 2 -56 -3 -72
-13 -34 -22 -51 -38 -51 -50 0 -14 -53 -57 -75 -60 -61 -8 -186 -2 -300 14
-66 9 -169 4 -237 -12 -42 -10 -40 -9 -58 -17 -43 -19 -136 -47 -155 -47 -25
0 -47 21 -44 42 6 49 -38 71 -149 73 -70 2 -87 -1 -109 -18 l-26 -21 5 34 c18
107 73 141 191 119 57 -10 85 -33 98 -82 17 -62 47 -64 189 -7 97 38 150 42
355 25 201 -16 232 -8 255 60 18 54 79 74 149 50z m3228 -180 c22 -6 56 -64
69 -120 7 -27 6 -29 -9 -16 -10 7 -17 10 -17 5 0 -4 -6 0 -13 11 -11 14 -16
15 -22 5 -6 -10 -9 -9 -17 1 -7 10 -11 11 -14 3 -3 -7 -13 -10 -23 -7 -10 3
-37 -5 -59 -16 -23 -12 -48 -21 -57 -21 -8 0 -15 -6 -15 -12 0 -9 -4 -8 -10 2
-8 12 -11 13 -19 1 -6 -10 -10 -10 -16 -1 -4 6 -13 9 -20 6 -7 -2 -16 -2 -19
2 -12 12 -42 13 -231 14 -185 1 -262 -4 -308 -21 -12 -4 -28 -6 -34 -4 -7 3
-13 1 -13 -4 0 -5 -8 -9 -17 -10 -22 -2 -78 -11 -78 -13 0 -1 -10 -3 -22 -4
-29 -3 -29 5 1 52 47 75 82 85 290 83 89 -1 186 3 216 9 30 6 95 11 144 11 70
-1 100 4 150 23 86 35 107 37 163 21z m-4514 -87 c25 -22 26 -25 15 -66 -10
-41 -13 -44 -39 -38 -19 4 -29 1 -29 -7 0 -9 -3 -8 -9 1 -16 26 -41 -15 -41
-68 0 -53 1 -52 -74 -65 -22 -4 -49 -13 -60 -21 -34 -23 -44 -17 -77 47 -27
54 -29 64 -16 76 18 18 78 32 137 33 63 0 72 9 69 64 -4 54 7 66 62 66 23 0
45 -8 62 -22z m2947 -24 c0 -6 -91 -64 -101 -64 -13 0 -19 31 -10 48 13 23 72
42 94 30 9 -5 17 -11 17 -14z m1836 -19 c16 -5 24 -19 30 -58 9 -50 10 -52 47
-58 30 -5 44 -1 69 18 37 27 80 25 194 -8 38 -11 90 -24 117 -29 50 -10 157
-55 157 -66 0 -4 -8 -32 -17 -62 -18 -57 -34 -72 -57 -53 -23 20 -300 103
-304 92 -4 -12 -23 -15 -21 -3 3 20 -3 23 -18 11 -11 -10 -14 -10 -9 -1 13 22
-44 14 -63 -9 -16 -19 -21 -21 -52 -10 -32 10 -35 15 -38 54 -1 27 -8 45 -19
52 -47 27 -92 10 -92 -35 0 -27 -3 -30 -35 -30 -31 0 -35 3 -44 38 -15 51 -15
50 21 65 27 11 32 18 32 47 1 26 7 37 26 47 24 12 34 12 76 -2z m-2361 -5 c3
-5 1 -10 -4 -10 -6 0 -11 5 -11 10 0 6 2 10 4 10 3 0 8 -4 11 -10z m-395 -940
c30 -4 85 -14 122 -21 l67 -12 -19 -36 c-22 -44 -65 -102 -71 -97 -2 2 -29 7
-59 10 -30 4 -73 9 -95 13 -57 8 -260 7 -325 -2 -30 -4 -58 -12 -62 -18 -6 -9
-8 -9 -8 0 0 7 -11 10 -27 8 -16 -2 -38 -4 -51 -4 -16 -1 -21 -5 -16 -13 6
-10 5 -10 -7 -1 -8 6 -34 10 -59 8 -25 -2 -83 -6 -130 -9 -47 -4 -125 -9 -175
-11 -91 -5 -136 -8 -280 -21 -44 -3 -96 -8 -115 -9 -19 -2 -37 -4 -40 -5 -3
-1 -18 -1 -34 0 -16 1 -33 -4 -37 -12 -6 -9 -9 -9 -9 -1 0 21 -186 -5 -256
-36 -26 -12 -58 -21 -72 -21 -13 0 -30 -7 -36 -15 -6 -8 -32 -17 -58 -20 -26
-3 -69 -13 -95 -24 -26 -10 -64 -21 -83 -25 -19 -3 -46 -8 -60 -11 -91 -19
-97 -18 -103 6 -9 33 -8 101 1 115 9 14 33 21 97 29 87 11 93 13 160 35 36 12
91 22 122 22 46 1 70 8 119 35 67 36 122 48 274 58 52 3 124 8 160 10 36 3
112 7 170 10 114 6 204 12 290 21 30 3 82 7 115 9 154 10 221 16 235 21 8 3
87 8 175 10 88 3 167 10 175 15 8 4 22 6 30 3 8 -3 40 -9 70 -14z m1161 -137
c35 -13 82 -17 229 -18 163 -2 214 -5 320 -20 14 -2 45 -7 70 -10 25 -3 53 -8
63 -11 10 -3 34 -8 55 -10 36 -4 68 -9 127 -18 17 -2 50 -10 75 -16 25 -6 56
-13 70 -16 76 -14 137 -30 245 -61 66 -19 129 -36 140 -38 11 -1 36 -5 55 -9
19 -3 51 -8 70 -11 19 -2 71 -12 115 -20 44 -9 94 -17 110 -20 47 -6 98 -15
117 -21 18 -5 43 -65 53 -128 6 -38 6 -38 -22 -31 -15 4 -37 9 -48 11 -11 1
-21 3 -22 4 -3 3 -5 3 -58 14 -22 5 -49 10 -60 12 -62 9 -371 73 -395 82 -8 3
-21 6 -28 8 -7 1 -44 12 -81 23 -38 11 -84 23 -102 25 -19 3 -50 10 -69 16
-19 6 -51 13 -70 16 -19 2 -48 9 -65 14 -26 8 -48 12 -140 25 -27 4 -91 13
-139 19 -21 3 -47 8 -57 11 -12 4 -19 2 -19 -7 0 -9 -3 -9 -8 -2 -11 17 -62
27 -62 12 0 -9 -2 -10 -8 -2 -9 15 -43 21 -59 11 -8 -5 -13 -4 -13 2 0 6 -13
11 -30 11 -17 0 -30 -5 -30 -12 0 -10 -2 -10 -9 0 -4 8 -19 13 -32 12 -13 -1
-26 -1 -29 0 -3 0 -52 3 -110 5 -96 4 -156 9 -250 21 -19 2 -48 -2 -66 -11
-29 -13 -37 -13 -94 7 -53 17 -69 19 -94 10 -16 -7 -32 -10 -34 -7 -7 7 56
110 76 122 22 13 51 12 106 -7 34 -11 41 -10 65 8 32 26 84 28 142 5z m1953
-40 c-6 -30 -11 -39 -19 -31 -6 6 11 58 19 58 3 0 2 -12 0 -27z m-4504 -227
c0 -3 -4 -8 -10 -11 -5 -3 -10 -1 -10 4 0 6 5 11 10 11 6 0 10 -2 10 -4z"/>
<path d="M4015 6560 c-3 -6 1 -7 9 -4 18 7 21 14 7 14 -6 0 -13 -4 -16 -10z"/>
<path d="M3688 6463 c6 -2 18 -2 25 0 6 3 1 5 -13 5 -14 0 -19 -2 -12 -5z"/>
<path d="M4858 6243 c7 -3 16 -2 19 1 4 3 -2 6 -13 5 -11 0 -14 -3 -6 -6z"/>
<path d="M4862 6148 c2 -6 10 -14 16 -16 7 -2 10 2 6 12 -7 18 -28 22 -22 4z"/>
<path d="M3284 5629 c-7 -11 22 -47 30 -38 8 7 -5 49 -15 49 -4 0 -11 -5 -15
-11z"/>
<path d="M4898 5013 c7 -3 16 -2 19 1 4 3 -2 6 -13 5 -11 0 -14 -3 -6 -6z"/>
<path d="M4650 5074 c0 -8 5 -12 10 -9 6 4 8 11 5 16 -9 14 -15 11 -15 -7z"/>
<path d="M3187 4843 c3 -7 6 -13 8 -13 2 0 5 6 8 13 3 8 -1 14 -8 14 -7 0 -11
-6 -8 -14z"/>
<path d="M4356 3474 c-4 -9 -4 -19 -1 -22 6 -6 35 18 35 29 0 16 -28 10 -34
-7z"/>
<path d="M4453 3387 c1 -32 3 -34 31 -30 17 2 37 10 46 18 13 14 11 15 -23 11
-31 -4 -37 -2 -35 11 2 9 -2 18 -9 20 -7 3 -11 -8 -10 -30z"/>
<path d="M4555 3371 c-15 -30 -15 -31 4 -31 11 0 23 5 26 10 3 6 -1 10 -11 10
-14 0 -14 3 -4 15 7 9 10 18 7 21 -3 3 -13 -8 -22 -25z"/>
<path d="M4150 2760 c-8 -5 -11 -12 -8 -16 4 -3 14 1 23 10 18 17 9 21 -15 6z"/>
<path d="M4208 2722 c-10 -2 -18 -8 -18 -13 0 -11 11 -11 30 1 18 11 11 18
-12 12z"/>
<path d="M4205 2420 c4 -6 11 -8 16 -5 14 9 11 15 -7 15 -8 0 -12 -5 -9 -10z"/>
<path d="M4228 2373 c7 -3 16 -2 19 1 4 3 -2 6 -13 5 -11 0 -14 -3 -6 -6z"/>
<path d="M4430 2370 c0 -5 5 -10 10 -10 6 0 10 5 10 10 0 6 -4 10 -10 10 -5 0
-10 -4 -10 -10z"/>
<path d="M4115 2299 c-4 -6 -5 -13 -2 -16 7 -7 27 6 27 18 0 12 -17 12 -25 -2z"/>
<path d="M5440 2264 c0 -3 7 -12 15 -20 16 -17 18 -14 9 10 -6 15 -24 23 -24
10z"/>
<path d="M4105 2200 c3 -5 8 -10 11 -10 2 0 4 5 4 10 0 6 -5 10 -11 10 -5 0
-7 -4 -4 -10z"/>
<path d="M5420 2160 c0 -5 5 -10 10 -10 6 0 10 5 10 10 0 6 -4 10 -10 10 -5 0
-10 -4 -10 -10z"/>
<path d="M4620 7899 c0 -5 5 -7 10 -4 6 3 10 8 10 11 0 2 -4 4 -10 4 -5 0 -10
-5 -10 -11z"/>
<path d="M2294 6915 c-3 -14 -11 -25 -17 -25 -6 0 -7 -3 -4 -7 4 -3 16 2 27
12 11 10 20 15 20 11 0 -4 6 -1 14 6 17 16 11 28 -14 28 -13 0 -22 -9 -26 -25z"/>
<path d="M1005 5022 c-11 -2 -29 -7 -40 -12 -11 -5 -33 -11 -50 -14 -62 -13
-76 -17 -110 -36 -18 -10 -77 -26 -131 -33 -89 -14 -121 -28 -108 -49 3 -4 14
-8 25 -8 10 0 19 -3 19 -7 0 -5 44 -8 98 -8 53 -1 122 -4 152 -8 30 -4 79 -10
108 -13 79 -9 176 4 204 28 13 11 28 23 33 26 6 4 15 18 21 31 13 31 -1 64
-38 85 -25 15 -135 26 -183 18z"/>
<path d="M5951 4974 c0 -11 3 -14 6 -6 3 7 2 16 -1 19 -3 4 -6 -2 -5 -13z"/>
<path d="M1850 4703 c-14 -3 -30 -9 -36 -14 -6 -5 -28 -8 -50 -8 -21 1 -66 -3
-99 -8 -48 -6 -64 -5 -78 7 -18 15 -77 21 -77 8 0 -4 -26 -5 -59 -2 -51 6 -62
4 -89 -16 -26 -19 -30 -28 -25 -51 3 -18 1 -29 -6 -29 -6 0 -11 5 -11 11 0 24
-18 -4 -25 -38 -8 -44 -20 -62 -52 -74 -13 -5 -23 -15 -23 -24 0 -8 -9 -15
-21 -15 -11 0 -17 -4 -14 -10 3 -5 -3 -10 -14 -10 -13 0 -27 -12 -37 -32 -9
-18 -23 -41 -32 -51 -14 -16 -14 -19 4 -32 18 -14 17 -14 -11 -16 -44 -3 -49
-4 -62 -12 -6 -4 -34 -2 -63 4 -48 10 -54 9 -91 -15 -21 -15 -39 -33 -39 -41
0 -8 -4 -15 -10 -15 -5 0 -10 6 -10 14 0 22 -19 30 -26 11 -4 -10 1 -21 12
-30 15 -11 17 -16 6 -26 -17 -18 -15 -30 4 -22 10 3 22 0 28 -8 18 -23 63 -42
78 -33 27 18 126 5 114 -15 -3 -4 -1 -13 5 -21 7 -12 9 -11 9 5 1 20 1 20 16
0 8 -11 12 -25 10 -32 -3 -7 0 -12 7 -10 7 1 12 -6 12 -16 0 -16 40 -70 88
-120 10 -10 31 -45 46 -77 15 -32 34 -64 42 -72 23 -21 79 -48 99 -48 10 0 21
-4 24 -9 3 -5 35 -8 71 -6 36 1 65 -2 65 -6 0 -12 54 -11 66 1 5 5 54 12 109
15 55 4 107 9 115 12 8 3 24 8 35 10 10 2 22 8 26 14 3 6 12 11 20 12 30 5 92
63 121 113 16 29 36 58 43 64 8 7 15 19 15 26 0 8 7 14 15 14 8 0 15 5 15 11
0 13 40 48 56 49 5 0 20 9 33 21 13 12 30 19 42 16 10 -3 17 -2 14 3 -3 4 10
11 29 14 19 4 39 13 46 21 7 8 20 15 30 15 10 0 21 8 24 17 6 15 8 15 16 3 14
-23 25 -3 12 23 -6 12 -16 34 -22 50 -5 15 -21 32 -35 37 -14 5 -24 13 -23 17
5 16 -24 54 -60 78 -20 14 -35 28 -34 31 7 10 -33 54 -48 54 -8 0 -28 7 -44
15 -15 8 -39 15 -51 15 -44 0 -125 115 -125 178 0 6 -6 12 -14 12 -7 0 -20 9
-27 19 -16 22 -43 30 -79 24z m-330 -93 c0 -5 8 -10 17 -10 9 0 13 -3 10 -7
-4 -3 0 -14 9 -24 15 -17 15 -19 0 -35 -19 -19 -20 -18 19 -38 26 -14 27 -16
9 -16 -12 0 -24 -6 -27 -14 -4 -10 -19 -13 -54 -10 -26 2 -58 3 -70 4 -19 0
-23 6 -23 33 0 27 6 37 28 47 42 22 62 41 62 62 0 10 5 18 10 18 6 0 10 -4 10
-10z m90 -74 c0 -3 -4 -8 -10 -11 -5 -3 -10 -1 -10 4 0 6 5 11 10 11 6 0 10
-2 10 -4z m-600 -276 c0 -5 -4 -10 -10 -10 -5 0 -10 5 -10 10 0 6 5 10 10 10
6 0 10 -4 10 -10z m5 -55 c0 -20 -5 -25 -24 -25 -17 0 -22 4 -17 16 3 9 6 20
6 25 0 5 8 9 18 9 12 0 17 -8 17 -25z"/>
<path d="M2895 4580 c17 -11 35 -20 40 -20 6 0 -3 9 -20 20 -16 11 -34 20 -40
20 -5 0 4 -9 20 -20z"/>
<path d="M2795 4510 c3 -5 8 -10 11 -10 2 0 4 5 4 10 0 6 -5 10 -11 10 -5 0
-7 -4 -4 -10z"/>
<path d="M8455 4361 c-39 -7 -62 -30 -57 -56 2 -15 11 -25 22 -25 9 0 25 -9
35 -20 10 -11 22 -17 26 -14 5 3 9 0 9 -5 0 -6 7 -11 16 -11 8 0 12 -4 9 -10
-3 -5 1 -10 9 -10 13 0 16 14 16 80 l0 80 -33 -3 c-18 -1 -42 -4 -52 -6z"/>
<path d="M211 4278 c-18 -5 -44 -16 -57 -25 -14 -9 -34 -13 -48 -9 -13 3 -43
8 -65 11 l-41 5 0 -92 0 -93 26 28 26 28 103 -7 104 -7 25 28 c14 15 26 22 26
16 0 -8 6 -7 16 4 13 12 14 19 5 28 -6 6 -11 21 -11 33 0 15 -12 30 -34 43
-18 12 -35 21 -37 20 -2 0 -19 -5 -38 -11z"/>
<path d="M7185 4270 c-3 -5 -1 -10 4 -10 6 0 11 5 11 10 0 6 -2 10 -4 10 -3 0
-8 -4 -11 -10z"/>
<path d="M7215 4270 c-7 -12 19 -12 55 0 22 7 21 8 -12 9 -20 1 -40 -3 -43 -9z"/>
<path d="M7193 4214 c-39 -16 -42 -30 -11 -40 l23 -7 -25 -10 -25 -10 23 -4
c12 -3 20 -8 17 -13 -3 -5 8 -8 25 -8 31 1 33 4 43 70 6 40 -15 46 -70 22z"/>
<path d="M6410 4160 c0 -5 4 -10 9 -10 6 0 13 5 16 10 3 6 -1 10 -9 10 -9 0
-16 -4 -16 -10z"/>
<path d="M1102 109 c-38 -19 -48 -20 -84 -10 -31 10 -47 10 -69 1 -16 -7 -29
-16 -29 -20 0 -4 -11 -24 -25 -44 l-24 -36 474 0 475 0 0 33 c0 24 -5 33 -17
34 -10 1 -34 5 -53 10 -19 5 -55 6 -80 2 -170 -26 -312 -18 -415 25 -74 31
-98 32 -153 5z"/>
<path d="M595 16 c-19 -14 -16 -15 45 -16 44 0 61 3 54 10 -19 19 -78 23 -99
6z"/>
</g>
</svg>
